<?xml version="1.0" standalone="no"?><!DOCTYPE svg PUBLIC "-//W3C//DTD SVG 1.1//EN" "http://www.w3.org/Graphics/SVG/1.1/DTD/svg11.dtd"><svg t="1528354831956" class="icon" style="" viewBox="0 0 1024 1024" version="1.1" xmlns="http://www.w3.org/2000/svg" p-id="15960" xmlns:xlink="http://www.w3.org/1999/xlink" width="32" height="32"><defs><style type="text/css"></style></defs><path d="M763.624588 475.845277l-204.416192-212.629685c-12.742429-13.202999-29.706747-20.495352-47.899251-20.495352-18.192504 0-35.156822 7.292354-47.89925 20.495352l-204.416192 212.629685c-21.109445 21.953823-18.346027 40.913943-14.891754 48.82039 2.456372 5.603598 10.90015 21.109445 35.08006 21.109445h29.937031v163.579011c0 37.152624 26.713043 72.07916 64.633284 72.07916h87.047676V608.335832c0-18.576312-2.84018-28.862369 16.196702-28.862369H545.775112c18.96012 0 16.11994 10.362819 16.11994 28.862369V781.433283h87.047677c37.92024 0 64.633283-35.003298 64.633283-72.07916V545.775112h29.937031c24.17991 0 32.546927-15.429085 35.08006-21.109445 3.454273-7.906447 6.14093-26.866567-14.968515-48.82039z m0 0" fill="#ffffff" p-id="15961"></path></svg>