<?xml version="1.0" standalone="no"?><!DOCTYPE svg PUBLIC "-//W3C//DTD SVG 1.1//EN" "http://www.w3.org/Graphics/SVG/1.1/DTD/svg11.dtd"><svg t="1528878892841" class="icon" style="" viewBox="0 0 1449 1024" version="1.1" xmlns="http://www.w3.org/2000/svg" p-id="3990" xmlns:xlink="http://www.w3.org/1999/xlink" width="45.28125" height="32"><defs><style type="text/css"></style></defs><path d="M612.542248 168.057786l221.898203 0 0 26.662187-221.898203 0L612.542248 168.057786 612.542248 168.057786 612.542248 168.057786zM1111.211154 194.719973 1111.211154 168.057786l-166.853687 0 0 26.662187 140.1915 0 0 128.666555L361.401646 323.386528l0-128.666555 140.1915 0L501.593146 168.057786l-166.853687 0 0 26.662187 0 0 0 684.960188 0 0 0 26.662187L1111.211154 906.342348l0-26.662187 0 0L1111.211154 194.719973 1111.211154 194.719973 1111.211154 194.719973 1111.211154 194.719973zM361.401646 879.680161l0-529.80346 723.147321 0 0 529.80346L361.401646 879.680161 361.401646 879.680161 361.401646 879.680161zM543.392575 121.958004l26.662187 0 0 136.579204-26.662187 0L543.392575 121.958004 543.392575 121.958004 543.392575 121.958004zM876.927935 121.958004l26.662187 0 0 136.579204-26.662187 0L876.927935 121.958004 876.927935 121.958004 876.927935 121.958004zM543.048547 538.232152l0 29.930455c20.985721-12.55703 38.187133-25.630102 51.948261-39.391231l0 217.081807 31.478582 0L626.475391 475.274987l-18.921552 0C590.86847 499.528977 569.366706 520.514698 543.048547 538.232152L543.048547 538.232152 543.048547 538.232152zM883.8085 628.711574c-2.580212-9.976818-6.880564-19.953637-12.55703-29.930455-5.84848-9.976818-14.965228-17.889467-27.522258-23.565933-12.55703-5.676466-25.630102-8.944734-39.391231-9.460776-13.589115-0.516042-28.382328 2.92424-44.035612 10.148833 5.160423-16.685369 10.492861-39.391231 15.653284-67.601545l100.628255 0 0-28.382328-124.366202 0c-17.889467 83.942886-27.866286 129.010583-29.930455 135.375105l26.662187 3.096254c8.428691-11.524945 19.093566-18.921552 32.338653-22.017806 13.073072-3.096254 24.942046-3.096254 35.434907 0 10.492861 3.096254 19.093566 9.460776 25.974131 18.921552 6.880564 9.460776 10.492861 20.985721 11.008903 34.574836 0.516042 13.589115-1.548127 25.974131-6.364522 36.983034-4.644381 11.008903-12.55703 19.953637-23.565933 26.834201-11.008903 6.880564-25.458088 8.600706-43.347556 5.504452-17.889467-3.096254-30.446498-18.921552-37.843104-47.30388l-28.382328 7.912649c5.160423 25.11406 14.965228 43.003528 29.070385 53.496388 14.105157 10.492861 29.070385 16.341341 44.895683 17.373425 15.653284 1.032085 29.586427-0.860071 41.627415-5.504452 12.040988-4.644381 22.361834-11.008903 30.618512-18.921552 8.428691-7.912649 14.621199-17.889467 18.921552-29.930455 4.128339-12.040988 6.536536-23.909961 7.052579-35.434907C887.420796 649.525281 886.388712 638.688392 883.8085 628.711574L883.8085 628.711574 883.8085 628.711574zM883.8085 628.711574" p-id="3991" fill="#707070"></path></svg>