<?xml version="1.0" standalone="no"?><!DOCTYPE svg PUBLIC "-//W3C//DTD SVG 1.1//EN" "http://www.w3.org/Graphics/SVG/1.1/DTD/svg11.dtd"><svg t="1529920549449" class="icon" style="" viewBox="0 0 1024 1024" version="1.1" xmlns="http://www.w3.org/2000/svg" p-id="1912" xmlns:xlink="http://www.w3.org/1999/xlink" width="32" height="32"><defs><style type="text/css"></style></defs><path d="M287.906 360.637h495.228c-0.795 1.426 38.096-9.971 38.096-43.955 0-33.989-20.2-43.956-45.116-43.956H294.925c-24.916 0-45.113 9.967-45.113 43.956 0 33.984 41.357 43.955 38.094 43.955z m488.208 109.887H294.925c-24.916 0-45.113 9.965-45.113 43.955 0 33.984 41.357 43.956 38.093 43.956h495.228c-0.795 1.426 38.096-9.972 38.096-43.956 0.002-33.99-20.198-43.955-45.115-43.955z m0 197.8H294.925c-24.916 0-45.113 9.964-45.113 43.954 0 33.986 41.357 43.956 38.093 43.956h495.228c-0.795 1.426 38.096-9.97 38.096-43.956 0.002-33.99-20.198-43.955-45.115-43.955z" p-id="1913" fill="#ffffff"></path></svg>