<?xml version="1.0" standalone="no"?><!DOCTYPE svg PUBLIC "-//W3C//DTD SVG 1.1//EN" "http://www.w3.org/Graphics/SVG/1.1/DTD/svg11.dtd"><svg t="1529833716141" class="icon" style="" viewBox="0 0 1024 1024" version="1.1" xmlns="http://www.w3.org/2000/svg" p-id="1768" xmlns:xlink="http://www.w3.org/1999/xlink" width="32" height="32"><defs><style type="text/css"></style></defs><path d="M84.528302 214.943396C36.226415 214.943396 0 178.716981 0 130.415094s36.226415-86.943396 84.528302-86.943396l852.528302 0c48.301887 0 86.943396 38.641509 86.943396 86.943396s-38.641509 84.528302-86.943396 84.528302L84.528302 214.943396z" p-id="1769" fill="#ffffff"></path><path d="M937.056604 425.056604c48.301887 0 86.943396 38.641509 86.943396 86.943396s-38.641509 84.528302-86.943396 84.528302L84.528302 596.528302c-48.301887 0-84.528302-36.226415-84.528302-84.528302s36.226415-86.943396 84.528302-86.943396L937.056604 425.056604z" p-id="1770" fill="#ffffff"></path><path d="M937.056604 809.056604c48.301887 0 86.943396 36.226415 86.943396 84.528302s-38.641509 86.943396-86.943396 86.943396L84.528302 980.528302c-48.301887 0-84.528302-38.641509-84.528302-86.943396s36.226415-84.528302 84.528302-84.528302L937.056604 809.056604z" p-id="1771" fill="#ffffff"></path></svg>