<?xml version="1.0" standalone="no"?><!DOCTYPE svg PUBLIC "-//W3C//DTD SVG 1.1//EN" "http://www.w3.org/Graphics/SVG/1.1/DTD/svg11.dtd"><svg t="1528282307310" class="icon" style="" viewBox="0 0 1024 1024" version="1.1" xmlns="http://www.w3.org/2000/svg" p-id="1598" xmlns:xlink="http://www.w3.org/1999/xlink" width="32" height="32"><defs><style type="text/css"></style></defs><path d="M990.208 438.272l-133.12-109.568V207.872c0-20.48-15.872-36.864-35.328-36.864h-67.072c-19.456 0-35.328 16.384-35.328 36.864v16.896l-164.352-131.584c-0.512-0.512-1.536-1.024-2.048-1.536-12.288-8.704-26.112-13.312-40.96-13.312-15.36 0-30.208 5.12-42.496 14.336l-0.512 0.512-435.2 345.088c-11.776 8.704-14.336 26.112-5.632 37.888 8.192 12.288 24.576 14.848 36.352 6.144l434.688-345.088h0.512c3.584-2.56 8.192-4.096 12.8-4.096s9.216 1.536 12.8 4.096c0 0 0.512 0 0.512 0.512l434.176 345.088c11.776 8.704 27.648 6.144 36.352-6.144 8.192-12.288 5.632-29.184-6.144-38.4z" fill="#d81e06" p-id="1599"></path><path d="M848.384 495.104l-301.568-242.688c-10.24-7.68-22.016-11.776-34.816-11.776-12.288 0-24.576 4.096-34.304 11.776l-0.512 0.512-301.568 242.688c-6.656 5.12-10.752 13.312-10.752 22.016v307.712c0 52.736 40.448 95.232 90.624 95.232h145.92v-76.288c0-40.448 31.232-73.216 69.12-73.216h71.68c38.4 0 69.12 32.768 69.12 73.216v75.776H768c49.664 0 90.624-42.496 90.624-95.232V517.12c0.512-8.704-3.584-16.896-10.24-22.016z" fill="#d81e06" p-id="1600"></path><path d="M769.024 945.664h-182.272v-101.376c0-26.112-19.456-47.616-43.52-47.616h-71.68c-24.064 0-43.52 21.504-43.52 47.616v101.376H256.512c-64 0-116.224-54.272-116.224-120.832V517.12c0-16.384 7.68-32.256 20.48-41.984l299.008-240.64 0.512-0.512 3.072-2.048c14.848-10.752 31.744-16.896 49.664-16.896s34.816 5.632 49.152 16.384l2.048 1.024 1.024 1.024L865.28 475.136c12.8 10.24 20.48 25.6 20.48 41.984v307.712c-1.024 66.56-53.248 120.832-116.736 120.832z m-131.072-51.2h131.072c35.84 0 65.024-31.232 65.024-69.632V517.12c0-1.024-0.512-1.536-1.024-2.048h-0.512L532.48 272.896l-2.048-1.536c-5.12-3.584-11.264-5.632-17.92-5.632-5.632 0-11.264 1.536-16.384 4.608l-2.56 2.048-301.056 242.688c-0.512 0.512-0.512 1.024-0.512 1.536V824.32c0 38.4 29.184 69.632 65.024 69.632h120.32v-49.664c0-54.272 42.496-98.816 94.72-98.816h71.68c52.224 0 94.72 44.544 94.72 98.816l-0.512 50.176z" fill="#d81e06" p-id="1601"></path></svg>