<?xml version="1.0" standalone="no"?><!DOCTYPE svg PUBLIC "-//W3C//DTD SVG 1.1//EN" "http://www.w3.org/Graphics/SVG/1.1/DTD/svg11.dtd"><svg t="1528345227870" class="icon" style="" viewBox="0 0 1025 1024" version="1.1" xmlns="http://www.w3.org/2000/svg" p-id="6746" xmlns:xlink="http://www.w3.org/1999/xlink" width="32.03125" height="32"><defs><style type="text/css"></style></defs><path d="M333.302 317.166c39.020-42.225 127.299-280.528 181.269-281.793 50.735-1.191 126.768 201.203 160.475 270.578 71.815 77.807 332.147 29.194 332.95 112.096 0.62 63.354-196.823 175.937-217.803 227.674-8.785 21.66-0.229 45.027 3.224 67.51 7.574 41.912 66.747 239.553 12.797 261.283-83.929 33.862-201.853-98.779-293.498-117.512-96.512-19.706-234.345 171.314-316.284 124.105-68.612-39.586 73.145-270.271 27.603-344.189-33.892-55.105-226.974-157.747-206.519-228.701 26.11-90.599 268.569-39.953 315.788-91.051z" fill="#DB6547" p-id="6747"></path><path d="M770.338 272.561c48.063 15.519 180.35 48.419 213.017 26.581 37.647-25.172-80.699-93.238-85.838-127.919-3.016-20.341 3.889-89.701-17.995-98.922-33.043-13.937-80.818 12.826-110.35 33.173-48.152 33.173-87.986-57.491-131.415-18.927-24.388 21.665 90.669 172.484 132.581 186.015z" fill="#DB6547" p-id="6748"></path></svg>