<?xml version="1.0" standalone="no"?><!DOCTYPE svg PUBLIC "-//W3C//DTD SVG 1.1//EN" "http://www.w3.org/Graphics/SVG/1.1/DTD/svg11.dtd"><svg t="1527813986910" class="icon" style="" viewBox="0 0 1310 1024" version="1.1" xmlns="http://www.w3.org/2000/svg" p-id="1066" xmlns:xlink="http://www.w3.org/1999/xlink" width="40.9375" height="32"><defs><style type="text/css"></style></defs><path d="M941.162555 879.782388H552.4215v0.08184h-117.74762l38.321684 38.342144a61.380167 61.380167 0 1 1-86.771096 86.812016l-143.179468-143.240849A61.155106 61.155106 0 0 1 225.060611 818.381761c0-16.961386 6.874579-32.306428 17.984389-43.416237l143.179468-143.220389a61.380167 61.380167 0 1 1 86.771096 86.812015l-38.423984 38.444445h36.275678v0.1023H531.961444V757.022055h409.201111c135.588788 0 245.520666-109.911418 245.520666-245.520667v-143.220388a61.380167 61.380167 0 1 1 122.760333 0v143.220388c0 203.393412-164.887588 368.281-368.280999 368.281zM716.101944 398.971083v245.520666a51.150139 51.150139 0 1 1-102.300278 0v-245.520666a51.150139 51.150139 0 1 1 102.300278 0z m207.117142-7.692981a61.380167 61.380167 0 0 1-86.771096-86.832476l38.423985-38.423984h-36.275679v-0.1023H777.48211V265.980722H368.281c-135.588788 0-245.520666 109.931878-245.520667 245.520666v143.220389a61.380167 61.380167 0 1 1-122.760333 0v-143.220389C0 308.107976 164.887588 143.220389 368.281 143.220389h388.741055v-0.08184h117.74762l-38.321685-38.342145A61.380167 61.380167 0 0 1 923.219086 17.984389l143.199929 143.240849c11.08935 11.10981 17.963929 26.454852 17.963929 43.395777 0 16.961386-6.874579 32.306428-17.963929 43.416238l-143.199929 143.240849z" p-id="1067" fill="#515151"></path></svg>