<?xml version="1.0" standalone="no"?><!DOCTYPE svg PUBLIC "-//W3C//DTD SVG 1.1//EN" "http://www.w3.org/Graphics/SVG/1.1/DTD/svg11.dtd"><svg t="1528344985771" class="icon" style="" viewBox="0 0 1024 1024" version="1.1" xmlns="http://www.w3.org/2000/svg" p-id="3236" xmlns:xlink="http://www.w3.org/1999/xlink" width="32" height="32"><defs><style type="text/css"></style></defs><path d="M512 844.96a24 24 0 0 1-24-24 24.8 24.8 0 0 0-24-24.8H182.4a50.56 50.56 0 0 1-50.56-50.56V230.88a50.56 50.56 0 0 1 50.56-50.56h302.72a50.56 50.56 0 0 1 50.56 50.56v508.64a24 24 0 0 1-24 24h-4a67.36 67.36 0 0 1 28.8 57.76A24 24 0 0 1 512 844.96zM182.4 228.48a2.56 2.56 0 0 0-2.56 2.56V745.6a2.56 2.56 0 0 0 2.56 2.56h285.76a83.36 83.36 0 0 1 25.12 6.72 23.84 23.84 0 0 1-5.76-16V230.88a2.56 2.56 0 0 0-2.56-2.56z" fill="#01C77B" p-id="3237"></path><path d="M512 844.96a24 24 0 0 1-24-24 67.36 67.36 0 0 1 28.8-57.76h-4a24 24 0 0 1-24-24V230.88a50.56 50.56 0 0 1 50.56-50.56H841.6a50.56 50.56 0 0 1 50.56 50.56V745.6a50.56 50.56 0 0 1-50.56 50.56H560a24.8 24.8 0 0 0-23.84 24.64A24 24 0 0 1 512 844.96z m27.36-616.48a2.56 2.56 0 0 0-2.56 2.56v508.48a23.84 23.84 0 0 1-5.76 16 83.84 83.84 0 0 1 25.28-6.88H841.6a2.56 2.56 0 0 0 2.56-2.56v-515.2a2.56 2.56 0 0 0-2.56-2.56z" fill="#01C77B" p-id="3238"></path><path d="M800.96 386.24l-42.4-33.28-45.28 33.28V203.04h87.68v183.2z" fill="#01C77B" p-id="3239"></path></svg>