<?xml version="1.0" standalone="no"?><!DOCTYPE svg PUBLIC "-//W3C//DTD SVG 1.1//EN" "http://www.w3.org/Graphics/SVG/1.1/DTD/svg11.dtd"><svg t="1528345277827" class="icon" style="" viewBox="0 0 1024 1024" version="1.1" xmlns="http://www.w3.org/2000/svg" p-id="7493" xmlns:xlink="http://www.w3.org/1999/xlink" width="32" height="32"><defs><style type="text/css"></style></defs><path d="M960 512c0 247.4-200.6 448-448 448S64 759.4 64 512 264.6 64 512 64s448 200.6 448 448z" fill="#44C636" p-id="7494"></path><path d="M450.2 725.8H242.5c-27.9 0-50.5-22.6-50.5-50.5V324.4c0-27.9 22.6-50.5 50.5-50.5h207.7c27.9 0 50.5 22.6 50.5 50.5V750.2c-15.8-18.8-36.5-24.4-50.5-24.4zM573.8 725.8h207.7c27.9 0 50.5-22.6 50.5-50.5V324.4c0-27.9-22.6-50.5-50.5-50.5H573.8c-27.9 0-50.5 22.6-50.5 50.5V750.2c15.8-18.8 36.5-24.4 50.5-24.4z" fill="#FFFFFF" p-id="7495"></path><path d="M227.7 350.4h209.4v26H227.7zM227.7 400.6h209.4v26H227.7zM227.7 450.8h209.4v26H227.7zM227.7 501h124.4v26H227.7zM673.3 350.4h127.6v26H673.3zM673.3 400.6h127.6v26H673.3zM673.3 450.8h127.6v26H673.3zM673.3 501h127.6v26H673.3z" fill="#44C636" p-id="7496"></path></svg>