<?xml version="1.0" standalone="no"?><!DOCTYPE svg PUBLIC "-//W3C//DTD SVG 1.1//EN" "http://www.w3.org/Graphics/SVG/1.1/DTD/svg11.dtd"><svg t="1528896087021" class="icon" style="" viewBox="0 0 1024 1024" version="1.1" xmlns="http://www.w3.org/2000/svg" p-id="6033" xmlns:xlink="http://www.w3.org/1999/xlink" width="32" height="32"><defs><style type="text/css"></style></defs><path d="M952.098816 354.857984 264.039424 354.857984C230.126592 354.857984 202.379264 327.085056 202.379264 293.141504L202.379264 293.141504C202.379264 259.196928 230.126592 231.424 264.039424 231.424L952.098816 231.424C986.012672 231.424 1013.76 259.196928 1013.76 293.141504L1013.76 293.141504C1013.76 327.085056 986.012672 354.857984 952.098816 354.857984ZM481.625088 511.998976 481.625088 512C481.625088 545.943552 453.87776 573.71648 419.963904 573.71648L71.901184 573.71648C37.987328 573.71648 10.24 545.943552 10.24 512L10.24 511.998976C10.24 478.055424 37.987328 450.282496 71.901184 450.282496L419.963904 450.282496C453.87776 450.282496 481.625088 478.055424 481.625088 511.998976ZM170.921984 669.140992 236.319744 669.140992C270.232576 669.140992 297.979904 696.91392 297.979904 730.857472L297.979904 730.858496C297.979904 764.802048 270.232576 792.574976 236.319744 792.574976L170.921984 792.574976C137.009152 792.574976 109.261824 764.802048 109.261824 730.858496L109.261824 730.857472C109.261824 696.91392 137.009152 669.140992 170.921984 669.140992ZM591.635456 573.71648C557.722624 573.71648 529.975296 545.943552 529.975296 512L529.975296 511.998976C529.975296 478.055424 557.722624 450.282496 591.635456 450.282496L683.195392 450.282496C717.108224 450.282496 744.855552 478.055424 744.855552 511.998976L744.855552 512C744.855552 545.943552 717.108224 573.71648 683.195392 573.71648L591.635456 573.71648ZM440.308736 669.140992 871.774208 669.140992C905.68704 669.140992 933.434368 696.91392 933.434368 730.857472L933.434368 730.858496C933.434368 764.802048 905.68704 792.574976 871.774208 792.574976L440.308736 792.574976C406.395904 792.574976 378.647552 764.802048 378.647552 730.858496L378.647552 730.857472C378.648576 696.91392 406.395904 669.140992 440.308736 669.140992Z" p-id="6034" fill="#ffffff"></path></svg>