<?xml version="1.0" standalone="no"?><!DOCTYPE svg PUBLIC "-//W3C//DTD SVG 1.1//EN" "http://www.w3.org/Graphics/SVG/1.1/DTD/svg11.dtd"><svg t="1528966462908" class="icon" style="" viewBox="0 0 1024 1024" version="1.1" xmlns="http://www.w3.org/2000/svg" p-id="3107" xmlns:xlink="http://www.w3.org/1999/xlink" width="32" height="32"><defs><style type="text/css"></style></defs><path d="M512 57.6c-247.424 0-448 200.576-448 448s200.576 448 448 448 448-200.576 448-448c0-247.424-200.576-448-448-448zM508.8 884.8c-212.077 0-384-171.923-384-384s171.923-384 384-384 384 171.923 384 384-171.923 384-384 384z" p-id="3108" fill="#ffffff"></path><path d="M364.8 286.918v1.082l0.934-0.538z" p-id="3109" fill="#ffffff"></path><path d="M364.8 726.835l2.694-1.549-2.694-1.555z" p-id="3110" fill="#ffffff"></path><path d="M700.8 506.88c0-13.773-6.227-26.074-16-34.298v-0.909l-255.066-147.264-0.384 0.224c-5.965-2.938-12.653-4.634-19.75-4.634-23.731 0-43.104 18.47-44.646 41.811l-0.154 0.090v287.93l0.045 0.026c0.48 24.326 20.314 43.904 44.755 43.904 7.846 0 15.219-2.029 21.632-5.574l0.262 0.147 253.306-146.246v-0.909c9.773-8.224 16-20.525 16-34.298z" p-id="3111" fill="#ffffff"></path></svg>