<?xml version="1.0" standalone="no"?><!DOCTYPE svg PUBLIC "-//W3C//DTD SVG 1.1//EN" "http://www.w3.org/Graphics/SVG/1.1/DTD/svg11.dtd"><svg t="1528879348846" class="icon" style="" viewBox="0 0 1024 1024" version="1.1" xmlns="http://www.w3.org/2000/svg" p-id="5023" xmlns:xlink="http://www.w3.org/1999/xlink" width="16" height="16"><defs><style type="text/css"></style></defs><path d="M511.570109 6.878254C233.00084 6.878254 6.878254 233.00084 6.878254 511.570109s226.122586 505.551637 505.551637 505.551637 505.551637-226.122586 505.551637-505.551637S790.139379 6.878254 511.570109 6.878254zM511.570109 744.570949c-148.742233 0-302.643157-124.668346-367.126784-232.141058 64.483627-108.332494 218.384551-232.141058 367.126784-232.141058s302.643157 124.668346 367.126784 232.141058C814.213266 619.902603 660.312343 744.570949 511.570109 744.570949z" p-id="5024" fill="#707070"></path><path d="M636.238455 431.610411c0 28.372796-22.354324 49.867338-48.147775 49.867338-25.793451 0-48.147775-22.354324-48.147775-49.867338 0-28.372796 22.354324-49.867338 48.147775-49.867338 4.298908 0 6.018472 1.719563 10.31738 1.719563-24.073887-18.055416-54.166247-28.372796-85.97817-28.372796-82.539043 0-148.742233 70.502099-148.742233 156.480269S429.890848 668.050378 511.570109 668.050378s148.742233-70.502099 148.742233-156.480269c0-34.391268-10.31738-64.483627-28.372796-90.277078C634.518892 425.59194 636.238455 429.890848 636.238455 431.610411L636.238455 431.610411z" p-id="5025" fill="#707070"></path></svg>