<?xml version="1.0" standalone="no"?><!DOCTYPE svg PUBLIC "-//W3C//DTD SVG 1.1//EN" "http://www.w3.org/Graphics/SVG/1.1/DTD/svg11.dtd"><svg t="1528357432402" class="icon" style="" viewBox="0 0 1024 1024" version="1.1" xmlns="http://www.w3.org/2000/svg" p-id="3620" xmlns:xlink="http://www.w3.org/1999/xlink" width="32" height="32"><defs><style type="text/css"></style></defs><path d="M680.124 531.085c69.186-52.907 118.024-134.302 118.024-227.907 0-154.651-126.163-284.884-284.884-284.884-154.651 0-284.884 126.163-284.884 284.884 0 93.605 48.837 179.071 118.024 231.977-166.86 61.047-284.884 227.907-284.884 419.187 0 24.418 20.349 40.698 40.698 40.698 24.418 0 40.698-20.349 40.698-40.698 0-203.489 162.791-366.28 366.28-366.28 0 0 4.069 0 4.069 0 0 0 0 0 4.069 0 203.489 0 366.28 162.791 366.28 366.28 0 24.418 20.349 40.698 40.698 40.698 24.418 0 40.698-20.349 40.698-40.698 8.14-195.349-113.954-358.14-284.884-423.257v0zM313.844 303.178c0-109.884 89.535-199.419 199.419-199.419s199.419 89.535 199.419 199.419c0 109.884-89.535 199.419-199.419 199.419s-199.419-89.535-199.419-199.419v0zM313.844 303.178z" fill="#ffffff" p-id="3621"></path></svg>