<?xml version="1.0" standalone="no"?><!DOCTYPE svg PUBLIC "-//W3C//DTD SVG 1.1//EN" "http://www.w3.org/Graphics/SVG/1.1/DTD/svg11.dtd"><svg t="1528345450250" class="icon" style="" viewBox="0 0 1024 1024" version="1.1" xmlns="http://www.w3.org/2000/svg" p-id="10848" xmlns:xlink="http://www.w3.org/1999/xlink" width="64" height="64"><defs><style type="text/css"></style></defs><path d="M416 98.6H147.9c-26.9 0-48.8 21.8-48.8 48.8v268.2c0 26.9 21.8 48.7 48.8 48.7H416c26.9 0 48.7-21.8 48.7-48.7V147.3c0.1-26.9-21.7-48.7-48.7-48.7zM879.2 98.6H611.1c-26.9 0-48.7 21.8-48.7 48.8v268.2c0 26.9 21.8 48.7 48.7 48.7h268.2c26.9 0 48.8-21.8 48.8-48.7V147.3c-0.1-26.9-21.9-48.7-48.9-48.7zM416 561.8H147.9c-26.9 0-48.8 21.8-48.8 48.7v268.2c0 26.9 21.8 48.8 48.8 48.8H416c26.9 0 48.7-21.8 48.7-48.8V610.5c0.1-26.9-21.7-48.7-48.7-48.7zM879.2 561.8H611.1c-26.9 0-48.7 21.8-48.7 48.7v268.2c0 26.9 21.8 48.8 48.7 48.8h268.2c26.9 0 48.8-21.8 48.8-48.8V610.5c-0.1-26.9-21.9-48.7-48.9-48.7z m-24.3 292.5H635.4V634.9h219.4v219.4z" fill="#ffffff" p-id="10849"></path></svg>