<?xml version="1.0" standalone="no"?><!DOCTYPE svg PUBLIC "-//W3C//DTD SVG 1.1//EN" "http://www.w3.org/Graphics/SVG/1.1/DTD/svg11.dtd"><svg t="1528283506350" class="icon" style="" viewBox="0 0 1024 1024" version="1.1" xmlns="http://www.w3.org/2000/svg" p-id="2674" xmlns:xlink="http://www.w3.org/1999/xlink" width="32" height="32"><defs><style type="text/css"></style></defs><path d="M887.37515 208.007902H137.1306c-37.425527 0-67.91505 30.489522-67.915049 67.91505V745.620546c0 37.425527 30.489522 67.91505 67.915049 67.91505h750.24455c37.425527 0 67.91505-30.489522 67.91505-67.91505V275.922952c0-37.425527-30.489522-67.91505-67.91505-67.91505zM650.683977 517.527129c88.578565-82.00381 228.310167-212.415156 273.46645-254.609186 1.445001 4.046003 2.239752 8.453256 2.239752 13.005009V745.620546c0 2.528752-0.289 5.057504-0.722501 7.514006L650.683977 517.527129z m236.691173-280.619205c6.358005 0 12.427009 1.517251 17.701263 4.262753-52.887039 49.346786-241.965427 225.781415-318.116983 295.791716-24.998518 22.975517-50.575037 33.957525-76.007056 32.729274-38.364778-1.950751-64.952798-31.356523-65.169547-31.573273l-0.578001-0.65025-328.01524-295.069216c5.852254-3.468003 12.643759-5.491004 19.868764-5.491004h750.3168zM99.705073 756.674804c-1.011501-3.468003-1.589501-7.225005-1.589501-10.982008V275.922952c0-3.684753 0.50575-7.225005 1.445001-10.548508L379.312778 517.093629l-279.607705 239.581175z m37.425527 28.033021c-7.080505 0-13.79976-1.950751-19.507514-5.274254L400.987794 536.601143l23.698017 21.313766c5.057504 5.491004 37.064277 38.075778 84.460312 40.676779 1.950751 0.07225 3.973753 0.1445 5.924504 0.144501 31.501023 0 62.279546-13.58301 91.468567-40.38778 6.719255-6.213505 14.377761-13.29401 22.758767-20.952515l280.474705 240.303676c-6.358005 4.479503-14.08876 7.080505-22.397516 7.080505H137.1306z" p-id="2675" fill="#bfbfbf"></path></svg>