<?xml version="1.0" standalone="no"?><!DOCTYPE svg PUBLIC "-//W3C//DTD SVG 1.1//EN" "http://www.w3.org/Graphics/SVG/1.1/DTD/svg11.dtd"><svg t="1528177929250" class="icon" style="" viewBox="0 0 1024 1024" version="1.1" xmlns="http://www.w3.org/2000/svg" p-id="2210" xmlns:xlink="http://www.w3.org/1999/xlink" width="32" height="32"><defs><style type="text/css"></style></defs><path d="M661.361 511.76l249.439-249.46c27.572-27.575 27.572-72.193 0-99.765l-49.849-49.844c-27.57-27.572-72.271-27.572-99.759 0l-249.454 249.448-249.454-249.447c-27.5-27.572-72.189-27.572-99.77 0l-49.84 49.844c-27.58 27.571-27.58 72.19 0 99.765l249.439 249.46-249.439 249.432c-27.58 27.572-27.58 72.189 0 99.689l49.84 49.994c27.58 27.497 72.27 27.497 99.77 0l249.455-249.478 249.453 249.478c27.488 27.497 72.189 27.497 99.759 0l49.849-49.994c27.572-27.5 27.572-72.117 0-99.689l-249.439-249.433z" p-id="2211" fill="#d81e06"></path></svg>