<?xml version="1.0" standalone="no"?><!DOCTYPE svg PUBLIC "-//W3C//DTD SVG 1.1//EN" "http://www.w3.org/Graphics/SVG/1.1/DTD/svg11.dtd"><svg t="1527814880426" class="icon" style="" viewBox="0 0 1024 1024" version="1.1" xmlns="http://www.w3.org/2000/svg" p-id="1063" xmlns:xlink="http://www.w3.org/1999/xlink" width="32" height="32"><defs><style type="text/css"></style></defs><path d="M701.773669 388.798027l48.061622 0 0 78.023004 134.724401-137.235594L749.835292 195.313338l0 89.065502-48.061622 0c-137.565099 0-215.242226 102.108562-283.750529 192.174857-61.523215 80.970126-114.753557 157.336398-200.579271 157.336398L139.439284 633.890095l0 104.419188 78.005608 0c137.566122 0 215.205387-108.530832 283.751552-198.595081C562.715567 458.726679 615.76376 388.798027 701.773669 388.798027L701.773669 388.798027zM341.037768 448.501804c5.820566-7.585769 11.787464-15.334243 17.789155-23.248494 14.626115-19.137873 29.907147-39.421848 46.570665-59.542094-49.262984-46.023196-108.602464-80.006172-187.953719-80.006172L139.439284 285.705044l0 104.401792c0 0 22.121833-0.983397 78.005608 0C271.508205 391.272381 305.41648 413.374772 341.037768 448.501804L341.037768 448.501804zM749.835292 634.729206l-48.061622 0c-52.392254 0-92.632747-26.070772-130.071428-64.834634-3.671623 4.966105-7.492648 9.91379-11.314697 14.84408-16.444531 21.612227-34.089399 44.87914-53.553707 67.799152 50.571792 49.317219 111.768573 86.591147 194.939831 86.591147l48.061622 0 0 89.557712L884.559693 694.432982 749.835292 557.196365 749.835292 634.729206 749.835292 634.729206zM749.835292 634.729206" p-id="1064" fill="#515151"></path></svg>