<?xml version="1.0" standalone="no"?><!DOCTYPE svg PUBLIC "-//W3C//DTD SVG 1.1//EN" "http://www.w3.org/Graphics/SVG/1.1/DTD/svg11.dtd"><svg t="1528896235478" class="icon" style="" viewBox="0 0 1024 1024" version="1.1" xmlns="http://www.w3.org/2000/svg" p-id="9933" xmlns:xlink="http://www.w3.org/1999/xlink" width="32" height="32"><defs><style type="text/css"></style></defs><path d="M559.104 897.024v-94.208h20.48c26.624 0 47.104-20.48 47.104-47.104 0-26.624-20.48-47.104-47.104-47.104h-20.48V120.832c0-26.624-20.48-47.104-47.104-47.104-26.624 0-47.104 20.48-47.104 47.104v593.92h-20.48c-26.624 0-47.104 20.48-47.104 47.104 0 26.624 20.48 47.104 47.104 47.104h20.48v94.208c0 24.576 20.48 47.104 45.056 47.104h2.048c26.624-6.144 45.056-26.624 47.104-53.248z m-323.584 0V335.872h20.48c26.624 0 47.104-20.48 47.104-47.104 0-26.624-20.48-47.104-47.104-47.104h-20.48V120.832c0-26.624-20.48-47.104-47.104-47.104-26.624 0-47.104 20.48-47.104 47.104v126.976h-20.48c-26.624 0-47.104 20.48-47.104 47.104 0 26.624 20.48 47.104 47.104 47.104h20.48v561.152c0 24.576 20.48 47.104 45.056 47.104h2.048c26.624-6.144 47.104-26.624 47.104-53.248z m552.96-776.192v126.976h-20.48c-26.624 0-47.104 20.48-47.104 47.104 0 26.624 20.48 47.104 47.104 47.104h20.48v561.152c0 26.624 20.48 47.104 47.104 47.104 26.624 0 47.104-20.48 47.104-47.104V335.872h20.48c24.576 0 47.104-18.432 47.104-45.056v-2.048c0-22.528-18.432-40.96-40.96-40.96h-26.624V120.832c0-26.624-20.48-47.104-47.104-47.104-26.624 0-47.104 22.528-47.104 47.104z" fill="#ffffff" p-id="9934"></path></svg>