<?xml version="1.0" standalone="no"?><!DOCTYPE svg PUBLIC "-//W3C//DTD SVG 1.1//EN" "http://www.w3.org/Graphics/SVG/1.1/DTD/svg11.dtd"><svg t="1527814903205" class="icon" style="" viewBox="0 0 1024 1024" version="1.1" xmlns="http://www.w3.org/2000/svg" p-id="1890" xmlns:xlink="http://www.w3.org/1999/xlink" width="32" height="32"><defs><style type="text/css"></style></defs><path d="M958.329325 885.622396l0.00307-0.031722 0-0.001023c0-9.284457-3.845585-18.583241-10.408047-25.14468L819.216987 731.736587c-32.43062-32.431643-82.71998 17.857716-50.288337 50.288337l67.991534 67.99972-739.052203 0c-45.86663 0-45.86663 72.15025 0 72.15025l824.90043 0C942.02908 922.17694 958.311929 904.878972 958.329325 885.622396L958.329325 885.622396z" p-id="1891" fill="#515151"></path><path d="M947.925371 231.594659 819.21801 102.886275c-32.459273-32.406061-82.724073 17.877159-50.288337 50.311873l67.977207 67.978231-43.019793 0c-0.151449 0-0.295735 0.00921-0.446162 0.011256-0.169869-0.002047-0.334621-0.01228-0.506537-0.01228L97.866958 221.175355c-45.867654 0-45.867654 71.128991 0 71.128991L792.933367 292.304346c0.160659 0 0.316202-0.010233 0.475837-0.011256 0.159636 0.002047 0.314155 0.011256 0.475837 0.011256l128.884392 0C953.721377 292.303322 969.879382 253.54867 947.925371 231.594659z" p-id="1892" fill="#515151"></path><path d="M958.333418 571.163471c0-9.289574-3.842515-18.578124-10.408047-25.14468L819.21801 417.311431c-32.459273-32.406061-82.724073 17.877159-50.288337 50.312896l67.976184 67.977207L97.866958 535.601534c-45.868677 0-45.865607 71.126944 0 71.126944l824.90043 0c19.268856 0 35.563984-16.293081 35.563984-35.56296l0-0.001023L958.333418 571.164494 958.333418 571.163471z" p-id="1893" fill="#515151"></path></svg>